<mxfile host="app.diagrams.net" modified="2023-07-05T08:56:54.625Z" agent="Mozilla/5.0 (Macintosh; Intel Mac OS X 10_15_7) AppleWebKit/537.36 (KHTML, like Gecko) Chrome/114.0.0.0 Safari/537.36" etag="J0wMgsMGljVPiwHhZuFa" version="21.5.2" type="github" pages="2">
  <diagram name="T2G_make_graph" id="rAqzIHwv5L88-jfvFItO">
    <mxGraphModel dx="1432" dy="684" grid="1" gridSize="10" guides="1" tooltips="1" connect="1" arrows="1" fold="1" page="1" pageScale="1" pageWidth="827" pageHeight="1169" math="0" shadow="0">
      <root>
        <mxCell id="0" />
        <mxCell id="1" parent="0" />
        <mxCell id="KOc4S9IPGy6iooe_boR2-1" style="edgeStyle=orthogonalEdgeStyle;rounded=0;orthogonalLoop=1;jettySize=auto;html=1;exitX=0.5;exitY=1;exitDx=0;exitDy=0;entryX=0.5;entryY=0;entryDx=0;entryDy=0;" edge="1" parent="1" source="KOc4S9IPGy6iooe_boR2-2" target="KOc4S9IPGy6iooe_boR2-19">
          <mxGeometry relative="1" as="geometry" />
        </mxCell>
        <mxCell id="KOc4S9IPGy6iooe_boR2-2" value="seg1" style="shape=step;perimeter=stepPerimeter;whiteSpace=wrap;html=1;fixedSize=1;" vertex="1" parent="1">
          <mxGeometry x="60" y="50" width="80" height="60" as="geometry" />
        </mxCell>
        <mxCell id="KOc4S9IPGy6iooe_boR2-3" style="edgeStyle=orthogonalEdgeStyle;rounded=0;orthogonalLoop=1;jettySize=auto;html=1;exitX=0.5;exitY=1;exitDx=0;exitDy=0;entryX=0.5;entryY=0;entryDx=0;entryDy=0;" edge="1" parent="1" source="KOc4S9IPGy6iooe_boR2-5" target="KOc4S9IPGy6iooe_boR2-19">
          <mxGeometry relative="1" as="geometry">
            <mxPoint x="130" y="140" as="targetPoint" />
            <Array as="points">
              <mxPoint x="160" y="110" />
              <mxPoint x="160" y="135" />
              <mxPoint x="125" y="135" />
            </Array>
          </mxGeometry>
        </mxCell>
        <mxCell id="KOc4S9IPGy6iooe_boR2-4" style="edgeStyle=orthogonalEdgeStyle;rounded=0;orthogonalLoop=1;jettySize=auto;html=1;exitX=0.5;exitY=1;exitDx=0;exitDy=0;entryX=0.5;entryY=0;entryDx=0;entryDy=0;" edge="1" parent="1" source="KOc4S9IPGy6iooe_boR2-5" target="KOc4S9IPGy6iooe_boR2-21">
          <mxGeometry relative="1" as="geometry" />
        </mxCell>
        <mxCell id="KOc4S9IPGy6iooe_boR2-5" value="seg2" style="shape=step;perimeter=stepPerimeter;whiteSpace=wrap;html=1;fixedSize=1;" vertex="1" parent="1">
          <mxGeometry x="130" y="50" width="80" height="60" as="geometry" />
        </mxCell>
        <mxCell id="KOc4S9IPGy6iooe_boR2-6" style="edgeStyle=orthogonalEdgeStyle;rounded=0;orthogonalLoop=1;jettySize=auto;html=1;exitX=0.5;exitY=1;exitDx=0;exitDy=0;entryX=0.5;entryY=0;entryDx=0;entryDy=0;" edge="1" parent="1" source="KOc4S9IPGy6iooe_boR2-7" target="KOc4S9IPGy6iooe_boR2-21">
          <mxGeometry relative="1" as="geometry" />
        </mxCell>
        <mxCell id="KOc4S9IPGy6iooe_boR2-7" value="seg3" style="shape=step;perimeter=stepPerimeter;whiteSpace=wrap;html=1;fixedSize=1;" vertex="1" parent="1">
          <mxGeometry x="200" y="50" width="80" height="60" as="geometry" />
        </mxCell>
        <mxCell id="KOc4S9IPGy6iooe_boR2-8" style="edgeStyle=orthogonalEdgeStyle;rounded=0;orthogonalLoop=1;jettySize=auto;html=1;exitX=0.5;exitY=1;exitDx=0;exitDy=0;" edge="1" parent="1" source="KOc4S9IPGy6iooe_boR2-9" target="KOc4S9IPGy6iooe_boR2-23">
          <mxGeometry relative="1" as="geometry" />
        </mxCell>
        <mxCell id="KOc4S9IPGy6iooe_boR2-9" value="segn-2" style="shape=step;perimeter=stepPerimeter;whiteSpace=wrap;html=1;fixedSize=1;" vertex="1" parent="1">
          <mxGeometry x="370" y="50" width="80" height="60" as="geometry" />
        </mxCell>
        <mxCell id="KOc4S9IPGy6iooe_boR2-10" style="edgeStyle=orthogonalEdgeStyle;rounded=0;orthogonalLoop=1;jettySize=auto;html=1;exitX=0.5;exitY=1;exitDx=0;exitDy=0;entryX=0.5;entryY=0;entryDx=0;entryDy=0;" edge="1" parent="1" source="KOc4S9IPGy6iooe_boR2-12" target="KOc4S9IPGy6iooe_boR2-25">
          <mxGeometry relative="1" as="geometry" />
        </mxCell>
        <mxCell id="KOc4S9IPGy6iooe_boR2-11" style="edgeStyle=orthogonalEdgeStyle;rounded=0;orthogonalLoop=1;jettySize=auto;html=1;exitX=0.25;exitY=1;exitDx=0;exitDy=0;entryX=0.5;entryY=0;entryDx=0;entryDy=0;" edge="1" parent="1" source="KOc4S9IPGy6iooe_boR2-12" target="KOc4S9IPGy6iooe_boR2-23">
          <mxGeometry relative="1" as="geometry" />
        </mxCell>
        <mxCell id="KOc4S9IPGy6iooe_boR2-12" value="&amp;nbsp; &amp;nbsp;segn-1" style="shape=step;perimeter=stepPerimeter;whiteSpace=wrap;html=1;fixedSize=1;" vertex="1" parent="1">
          <mxGeometry x="440" y="50" width="80" height="60" as="geometry" />
        </mxCell>
        <mxCell id="KOc4S9IPGy6iooe_boR2-13" style="edgeStyle=orthogonalEdgeStyle;rounded=0;orthogonalLoop=1;jettySize=auto;html=1;exitX=0.5;exitY=1;exitDx=0;exitDy=0;entryX=0.5;entryY=0;entryDx=0;entryDy=0;" edge="1" parent="1" source="KOc4S9IPGy6iooe_boR2-14" target="KOc4S9IPGy6iooe_boR2-25">
          <mxGeometry relative="1" as="geometry" />
        </mxCell>
        <mxCell id="KOc4S9IPGy6iooe_boR2-14" value="segn" style="shape=step;perimeter=stepPerimeter;whiteSpace=wrap;html=1;fixedSize=1;" vertex="1" parent="1">
          <mxGeometry x="510" y="50" width="80" height="60" as="geometry" />
        </mxCell>
        <mxCell id="KOc4S9IPGy6iooe_boR2-15" value="" style="shape=waypoint;sketch=0;size=6;pointerEvents=1;points=[];fillColor=none;resizable=0;rotatable=0;perimeter=centerPerimeter;snapToPoint=1;" vertex="1" parent="1">
          <mxGeometry x="290" y="70" width="20" height="20" as="geometry" />
        </mxCell>
        <mxCell id="KOc4S9IPGy6iooe_boR2-16" value="" style="shape=waypoint;sketch=0;size=6;pointerEvents=1;points=[];fillColor=none;resizable=0;rotatable=0;perimeter=centerPerimeter;snapToPoint=1;" vertex="1" parent="1">
          <mxGeometry x="310" y="70" width="20" height="20" as="geometry" />
        </mxCell>
        <mxCell id="KOc4S9IPGy6iooe_boR2-17" value="" style="shape=waypoint;sketch=0;size=6;pointerEvents=1;points=[];fillColor=none;resizable=0;rotatable=0;perimeter=centerPerimeter;snapToPoint=1;" vertex="1" parent="1">
          <mxGeometry x="333.5" y="70" width="20" height="20" as="geometry" />
        </mxCell>
        <mxCell id="KOc4S9IPGy6iooe_boR2-18" style="edgeStyle=orthogonalEdgeStyle;rounded=0;orthogonalLoop=1;jettySize=auto;html=1;exitX=0.5;exitY=1;exitDx=0;exitDy=0;" edge="1" parent="1" source="KOc4S9IPGy6iooe_boR2-19" target="KOc4S9IPGy6iooe_boR2-27">
          <mxGeometry relative="1" as="geometry" />
        </mxCell>
        <mxCell id="KOc4S9IPGy6iooe_boR2-19" value="transition1" style="rounded=0;whiteSpace=wrap;html=1;" vertex="1" parent="1">
          <mxGeometry x="90" y="160" width="70" height="40" as="geometry" />
        </mxCell>
        <mxCell id="KOc4S9IPGy6iooe_boR2-20" style="edgeStyle=orthogonalEdgeStyle;rounded=0;orthogonalLoop=1;jettySize=auto;html=1;exitX=0.5;exitY=1;exitDx=0;exitDy=0;entryX=0.5;entryY=0;entryDx=0;entryDy=0;" edge="1" parent="1" source="KOc4S9IPGy6iooe_boR2-21" target="KOc4S9IPGy6iooe_boR2-27">
          <mxGeometry relative="1" as="geometry" />
        </mxCell>
        <mxCell id="KOc4S9IPGy6iooe_boR2-21" value="transition 2" style="rounded=0;whiteSpace=wrap;html=1;" vertex="1" parent="1">
          <mxGeometry x="170" y="160" width="70" height="40" as="geometry" />
        </mxCell>
        <mxCell id="KOc4S9IPGy6iooe_boR2-22" style="edgeStyle=orthogonalEdgeStyle;rounded=0;orthogonalLoop=1;jettySize=auto;html=1;exitX=0.5;exitY=1;exitDx=0;exitDy=0;entryX=0.5;entryY=0;entryDx=0;entryDy=0;" edge="1" parent="1" source="KOc4S9IPGy6iooe_boR2-23" target="KOc4S9IPGy6iooe_boR2-27">
          <mxGeometry relative="1" as="geometry" />
        </mxCell>
        <mxCell id="KOc4S9IPGy6iooe_boR2-23" value="transition n-2" style="rounded=0;whiteSpace=wrap;html=1;" vertex="1" parent="1">
          <mxGeometry x="390" y="160" width="80" height="40" as="geometry" />
        </mxCell>
        <mxCell id="KOc4S9IPGy6iooe_boR2-24" style="edgeStyle=orthogonalEdgeStyle;rounded=0;orthogonalLoop=1;jettySize=auto;html=1;exitX=0.5;exitY=1;exitDx=0;exitDy=0;entryX=0.5;entryY=0;entryDx=0;entryDy=0;" edge="1" parent="1" source="KOc4S9IPGy6iooe_boR2-25" target="KOc4S9IPGy6iooe_boR2-27">
          <mxGeometry relative="1" as="geometry" />
        </mxCell>
        <mxCell id="KOc4S9IPGy6iooe_boR2-25" value="transition n-1" style="rounded=0;whiteSpace=wrap;html=1;" vertex="1" parent="1">
          <mxGeometry x="480" y="160" width="80" height="40" as="geometry" />
        </mxCell>
        <mxCell id="KOc4S9IPGy6iooe_boR2-26" style="edgeStyle=orthogonalEdgeStyle;rounded=0;orthogonalLoop=1;jettySize=auto;html=1;exitX=0.5;exitY=1;exitDx=0;exitDy=0;entryX=0.5;entryY=0;entryDx=0;entryDy=0;" edge="1" parent="1" source="KOc4S9IPGy6iooe_boR2-27" target="KOc4S9IPGy6iooe_boR2-28">
          <mxGeometry relative="1" as="geometry" />
        </mxCell>
        <mxCell id="KOc4S9IPGy6iooe_boR2-27" value="Sum" style="shape=hexagon;perimeter=hexagonPerimeter2;whiteSpace=wrap;html=1;fixedSize=1;" vertex="1" parent="1">
          <mxGeometry x="290" y="240" width="64" height="50" as="geometry" />
        </mxCell>
        <mxCell id="KOc4S9IPGy6iooe_boR2-28" value="shapelet evolution graph" style="rounded=1;whiteSpace=wrap;html=1;" vertex="1" parent="1">
          <mxGeometry x="250" y="310" width="140" height="60" as="geometry" />
        </mxCell>
      </root>
    </mxGraphModel>
  </diagram>
  <diagram id="UksdGEQAw0gD3PLHC65w" name="T2G_flow">
    <mxGraphModel dx="1432" dy="684" grid="1" gridSize="10" guides="1" tooltips="1" connect="1" arrows="1" fold="1" page="1" pageScale="1" pageWidth="827" pageHeight="1169" math="0" shadow="0">
      <root>
        <mxCell id="0" />
        <mxCell id="1" parent="0" />
        <mxCell id="8sqy1ubS4deS_JdlXSD9-1" style="edgeStyle=orthogonalEdgeStyle;rounded=0;orthogonalLoop=1;jettySize=auto;html=1;exitX=0.5;exitY=1;exitDx=0;exitDy=0;" edge="1" parent="1" source="8sqy1ubS4deS_JdlXSD9-4" target="8sqy1ubS4deS_JdlXSD9-11">
          <mxGeometry relative="1" as="geometry" />
        </mxCell>
        <mxCell id="8sqy1ubS4deS_JdlXSD9-2" style="edgeStyle=orthogonalEdgeStyle;rounded=0;orthogonalLoop=1;jettySize=auto;html=1;exitX=0;exitY=0.5;exitDx=0;exitDy=0;entryX=1;entryY=0.5;entryDx=0;entryDy=0;" edge="1" parent="1" source="8sqy1ubS4deS_JdlXSD9-4" target="8sqy1ubS4deS_JdlXSD9-6">
          <mxGeometry relative="1" as="geometry" />
        </mxCell>
        <mxCell id="8sqy1ubS4deS_JdlXSD9-3" style="edgeStyle=orthogonalEdgeStyle;rounded=0;orthogonalLoop=1;jettySize=auto;html=1;exitX=1;exitY=0.5;exitDx=0;exitDy=0;entryX=1;entryY=0.5;entryDx=0;entryDy=0;" edge="1" parent="1" source="8sqy1ubS4deS_JdlXSD9-4" target="8sqy1ubS4deS_JdlXSD9-19">
          <mxGeometry relative="1" as="geometry">
            <Array as="points">
              <mxPoint x="330" y="100" />
              <mxPoint x="330" y="360" />
            </Array>
          </mxGeometry>
        </mxCell>
        <mxCell id="8sqy1ubS4deS_JdlXSD9-4" value="Time series data" style="rounded=1;whiteSpace=wrap;html=1;fontSize=12;glass=0;strokeWidth=1;shadow=0;" vertex="1" parent="1">
          <mxGeometry x="160" y="80" width="120" height="40" as="geometry" />
        </mxCell>
        <mxCell id="8sqy1ubS4deS_JdlXSD9-5" style="edgeStyle=orthogonalEdgeStyle;rounded=0;orthogonalLoop=1;jettySize=auto;html=1;exitX=0.5;exitY=1;exitDx=0;exitDy=0;entryX=0.5;entryY=0;entryDx=0;entryDy=0;" edge="1" parent="1" source="8sqy1ubS4deS_JdlXSD9-6" target="8sqy1ubS4deS_JdlXSD9-9">
          <mxGeometry relative="1" as="geometry" />
        </mxCell>
        <mxCell id="8sqy1ubS4deS_JdlXSD9-6" value="shapelet &lt;br&gt;finding" style="rhombus;whiteSpace=wrap;html=1;shadow=0;fontFamily=Helvetica;fontSize=12;align=center;strokeWidth=1;spacing=6;spacingTop=-4;" vertex="1" parent="1">
          <mxGeometry x="30" y="60" width="100" height="80" as="geometry" />
        </mxCell>
        <mxCell id="8sqy1ubS4deS_JdlXSD9-7" style="edgeStyle=orthogonalEdgeStyle;rounded=0;orthogonalLoop=1;jettySize=auto;html=1;exitX=1;exitY=0.5;exitDx=0;exitDy=0;entryX=0;entryY=0.5;entryDx=0;entryDy=0;" edge="1" parent="1" source="8sqy1ubS4deS_JdlXSD9-9" target="8sqy1ubS4deS_JdlXSD9-11">
          <mxGeometry relative="1" as="geometry" />
        </mxCell>
        <mxCell id="8sqy1ubS4deS_JdlXSD9-8" style="edgeStyle=orthogonalEdgeStyle;rounded=0;orthogonalLoop=1;jettySize=auto;html=1;exitX=0.5;exitY=1;exitDx=0;exitDy=0;entryX=0.5;entryY=0;entryDx=0;entryDy=0;" edge="1" parent="1" source="8sqy1ubS4deS_JdlXSD9-9" target="8sqy1ubS4deS_JdlXSD9-15">
          <mxGeometry relative="1" as="geometry" />
        </mxCell>
        <mxCell id="8sqy1ubS4deS_JdlXSD9-9" value="shapelet set" style="rounded=1;whiteSpace=wrap;html=1;fontSize=12;glass=0;strokeWidth=1;shadow=0;" vertex="1" parent="1">
          <mxGeometry x="20" y="170" width="120" height="40" as="geometry" />
        </mxCell>
        <mxCell id="8sqy1ubS4deS_JdlXSD9-10" style="edgeStyle=orthogonalEdgeStyle;rounded=0;orthogonalLoop=1;jettySize=auto;html=1;exitX=0.5;exitY=1;exitDx=0;exitDy=0;entryX=0.5;entryY=0;entryDx=0;entryDy=0;" edge="1" parent="1" source="8sqy1ubS4deS_JdlXSD9-11" target="8sqy1ubS4deS_JdlXSD9-13">
          <mxGeometry relative="1" as="geometry" />
        </mxCell>
        <mxCell id="8sqy1ubS4deS_JdlXSD9-11" value="graph struct" style="rhombus;whiteSpace=wrap;html=1;shadow=0;fontFamily=Helvetica;fontSize=12;align=center;strokeWidth=1;spacing=6;spacingTop=-4;fillColor=#f8cecc;strokeColor=#b85450;" vertex="1" parent="1">
          <mxGeometry x="170" y="150" width="100" height="80" as="geometry" />
        </mxCell>
        <mxCell id="8sqy1ubS4deS_JdlXSD9-12" style="edgeStyle=orthogonalEdgeStyle;rounded=0;orthogonalLoop=1;jettySize=auto;html=1;exitX=0;exitY=0.5;exitDx=0;exitDy=0;" edge="1" parent="1" source="8sqy1ubS4deS_JdlXSD9-13" target="8sqy1ubS4deS_JdlXSD9-15">
          <mxGeometry relative="1" as="geometry" />
        </mxCell>
        <mxCell id="8sqy1ubS4deS_JdlXSD9-13" value="shapelet graph" style="rounded=1;whiteSpace=wrap;html=1;fontSize=12;glass=0;strokeWidth=1;shadow=0;" vertex="1" parent="1">
          <mxGeometry x="160" y="260" width="120" height="40" as="geometry" />
        </mxCell>
        <mxCell id="8sqy1ubS4deS_JdlXSD9-14" style="edgeStyle=orthogonalEdgeStyle;rounded=0;orthogonalLoop=1;jettySize=auto;html=1;exitX=0.5;exitY=1;exitDx=0;exitDy=0;entryX=0.5;entryY=0;entryDx=0;entryDy=0;" edge="1" parent="1" source="8sqy1ubS4deS_JdlXSD9-15" target="8sqy1ubS4deS_JdlXSD9-17">
          <mxGeometry relative="1" as="geometry" />
        </mxCell>
        <mxCell id="8sqy1ubS4deS_JdlXSD9-15" value="deepwalk" style="rhombus;whiteSpace=wrap;html=1;shadow=0;fontFamily=Helvetica;fontSize=12;align=center;strokeWidth=1;spacing=6;spacingTop=-4;" vertex="1" parent="1">
          <mxGeometry x="30" y="240" width="100" height="80" as="geometry" />
        </mxCell>
        <mxCell id="8sqy1ubS4deS_JdlXSD9-16" style="edgeStyle=orthogonalEdgeStyle;rounded=0;orthogonalLoop=1;jettySize=auto;html=1;exitX=1;exitY=0.5;exitDx=0;exitDy=0;entryX=0;entryY=0.5;entryDx=0;entryDy=0;" edge="1" parent="1" source="8sqy1ubS4deS_JdlXSD9-17" target="8sqy1ubS4deS_JdlXSD9-19">
          <mxGeometry relative="1" as="geometry" />
        </mxCell>
        <mxCell id="8sqy1ubS4deS_JdlXSD9-17" value="shapelet embedding" style="rounded=1;whiteSpace=wrap;html=1;fontSize=12;glass=0;strokeWidth=1;shadow=0;" vertex="1" parent="1">
          <mxGeometry x="20" y="340" width="120" height="40" as="geometry" />
        </mxCell>
        <mxCell id="8sqy1ubS4deS_JdlXSD9-18" style="edgeStyle=orthogonalEdgeStyle;rounded=0;orthogonalLoop=1;jettySize=auto;html=1;exitX=0.5;exitY=1;exitDx=0;exitDy=0;entryX=0.5;entryY=0;entryDx=0;entryDy=0;" edge="1" parent="1" source="8sqy1ubS4deS_JdlXSD9-19" target="8sqy1ubS4deS_JdlXSD9-21">
          <mxGeometry relative="1" as="geometry" />
        </mxCell>
        <mxCell id="8sqy1ubS4deS_JdlXSD9-19" value="integrate" style="rhombus;whiteSpace=wrap;html=1;shadow=0;fontFamily=Helvetica;fontSize=12;align=center;strokeWidth=1;spacing=6;spacingTop=-4;" vertex="1" parent="1">
          <mxGeometry x="170" y="320" width="100" height="80" as="geometry" />
        </mxCell>
        <mxCell id="8sqy1ubS4deS_JdlXSD9-20" style="edgeStyle=orthogonalEdgeStyle;rounded=0;orthogonalLoop=1;jettySize=auto;html=1;exitX=0.5;exitY=1;exitDx=0;exitDy=0;entryX=0.5;entryY=0;entryDx=0;entryDy=0;" edge="1" parent="1" source="8sqy1ubS4deS_JdlXSD9-21" target="8sqy1ubS4deS_JdlXSD9-22">
          <mxGeometry relative="1" as="geometry" />
        </mxCell>
        <mxCell id="8sqy1ubS4deS_JdlXSD9-21" value="time series embedding" style="rounded=1;whiteSpace=wrap;html=1;fontSize=12;glass=0;strokeWidth=1;shadow=0;" vertex="1" parent="1">
          <mxGeometry x="160" y="430" width="120" height="40" as="geometry" />
        </mxCell>
        <mxCell id="8sqy1ubS4deS_JdlXSD9-22" value="Classification" style="ellipse;whiteSpace=wrap;html=1;" vertex="1" parent="1">
          <mxGeometry x="117" y="505" width="206" height="80" as="geometry" />
        </mxCell>
      </root>
    </mxGraphModel>
  </diagram>
</mxfile>
